<svg id="Layer_1_1_" enable-background="new 0 0 64 64" height="512" viewBox="0 0 64 64" width="512" xmlns="http://www.w3.org/2000/svg"><path d="m15.47461 21.85059c.16016.09912.34277.14941.52539.14941.15332 0 .30566-.03516.44727-.10547l9.78906-4.89453h3.76367v4c0 .34668.17969.66846.47461.85059.16016.09912.34277.14941.52539.14941.15332 0 .30566-.03516.44727-.10547l9.78906-4.89453h4.76367v4c0 .34668.17969.66846.47461.85059.16016.09912.34277.14941.52539.14941.15332 0 .30566-.03516.44727-.10547l10-5c.33886-.16943.55273-.51562.55273-.89453s-.21387-.7251-.55273-.89453l-10-5c-.31055-.1543-.67773-.13818-.97266.04395s-.47461.5039-.47461.85058v4h-4.76367l-9.78906-4.89453c-.31055-.1543-.67773-.13818-.97266.04395s-.47461.5039-.47461.85058v4h-3.76367l-9.78906-4.89453c-.30957-.1543-.67871-.13818-.97266.04395-.29492.18212-.47461.5039-.47461.85058v10c0 .34668.17969.66846.47461.85059zm32.52539-9.23243 6.76367 3.38184-6.76367 3.38184zm-16 0 6.76367 3.38184-6.76367 3.38184zm-15 0 6.76367 3.38184-6.76367 3.38184z"/><path d="m61 2h-50c-.55273 0-1 .44775-1 1v23.35004c-2.3266.82629-4 3.04345-4 5.64996 0 1.53754.58618 2.93719 1.54047 4h-.54047c-2.75684 0-5 2.24316-5 5v7c0 .55225.44727 1 1 1h3v12c0 .55225.44727 1 1 1h5 5c.55273 0 1-.44775 1-1v-11h43c.55273 0 1-.44775 1-1v-46c0-.55225-.44727-1-1-1zm-53 30c0-2.20557 1.79395-4 4-4s4 1.79443 4 4-1.79395 4-4 4-4-1.79443-4-4zm8 9v19h-3v-11h-2v11h-3v-19h-2v6h-2v-6c0-1.6543 1.3457-3 3-3h15c.26562 0 .51953-.10547.70703-.29297l5.29297-5.29297 1.58594 1.58594-6 6h-6.58594c-.55273 0-1 .44775-1 1zm44 7h-42v-6h6c.26562 0 .51953-.10547.70703-.29297l7-7c.39062-.39062.39062-1.02344 0-1.41406l-3-3c-.39062-.39062-1.02344-.39062-1.41406 0l-5.70703 5.70703h-5.1264c.95428-1.06281 1.54046-2.46246 1.54046-4 0-3.30859-2.69141-6-6-6v-22h48z"/><path d="m36 27h4v2h-4z"/><path d="m42 27h14v2h-14z"/><path d="m36 32h4v2h-4z"/><path d="m42 32h14v2h-14z"/><path d="m36 37h4v2h-4z"/><path d="m42 37h14v2h-14z"/><path d="m20 44h2v2h-2z"/><path d="m24 44h2v2h-2z"/><path d="m28 44h2v2h-2z"/><path d="m32 44h2v2h-2z"/><path d="m36 44h2v2h-2z"/><path d="m40 44h2v2h-2z"/><path d="m44 44h2v2h-2z"/><path d="m48 44h2v2h-2z"/><path d="m52 44h2v2h-2z"/><path d="m56 44h2v2h-2z"/></svg>