<svg id="Capa_1" enable-background="new 0 0 512 512" height="512" viewBox="0 0 512 512" width="512" xmlns="http://www.w3.org/2000/svg"><g><g><path clip-rule="evenodd" d="m10 10h61.681v61.681h-61.681z" fill="#cbf4fb" fill-rule="evenodd"/></g><g><path clip-rule="evenodd" d="m440.291 71.681h30.84 30.869v-61.681h-61.709z" fill="#cbf4fb" fill-rule="evenodd"/></g><g><path clip-rule="evenodd" d="m440.291 440.291h61.709v61.709h-61.709z" fill="#cbf4fb" fill-rule="evenodd"/></g><g><path clip-rule="evenodd" d="m10 502h61.681v-61.709h-30.841-30.84z" fill="#cbf4fb" fill-rule="evenodd"/></g><g><path clip-rule="evenodd" d="m101.954 101.954h308.092v308.092h-308.092z" fill="#fff1a0" fill-rule="evenodd"/></g><g><path d="m502 81.681c5.522 0 10-4.477 10-10v-61.681c0-5.523-4.478-10-10-10h-61.709c-5.522 0-10 4.477-10 10v20.84h-348.61v-20.84c0-5.523-4.478-10-10-10h-61.681c-5.522 0-10 4.477-10 10v61.681c0 5.523 4.478 10 10 10h20.841v348.61h-20.841c-5.522 0-10 4.477-10 10v61.709c0 5.523 4.478 10 10 10h61.681c5.522 0 10-4.477 10-10v-20.869h348.61v20.869c0 5.523 4.478 10 10 10h61.709c5.522 0 10-4.477 10-10v-61.709c0-5.523-4.478-10-10-10h-20.869v-348.61zm-51.709-61.681h41.709v41.681h-41.709zm-430.291 41.681v-41.681h41.681v41.681zm41.681 430.319h-41.681v-41.709h41.681zm430.319 0h-41.709v-41.709h41.709zm-51.709-61.709c-5.522 0-10 4.477-10 10v20.84h-348.61v-20.84c0-5.523-4.478-10-10-10h-20.84v-348.61h20.84c5.522 0 10-4.477 10-10v-20.841h348.61v20.84c0 5.523 4.478 10 10 10h20.84v348.61h-20.84z"/><path d="m410.046 91.954h-308.092c-5.522 0-10 4.477-10 10v109.132c0 5.523 4.478 10 10 10s10-4.477 10-10v-99.132h288.092v288.092h-288.092v-99.16c0-5.523-4.478-10-10-10s-10 4.477-10 10v109.16c0 5.523 4.478 10 10 10h308.092c5.522 0 10-4.477 10-10v-308.092c0-5.523-4.478-10-10-10z"/><path d="m171.118 243.989c5.522 0 10-4.477 10-10v-78.071h15.427c5.522 0 10-4.477 10-10s-4.478-10-10-10h-50.598c-5.522 0-10 4.477-10 10s4.478 10 10 10h15.171v78.071c0 5.523 4.478 10 10 10z"/><path d="m366.053 155.918c5.522 0 10-4.477 10-10s-4.478-10-10-10h-16.922c-5.522 0-10 4.477-10 10s4.478 10 10 10z"/><path d="m309.135 135.918h-75.968c-5.522 0-10 4.477-10 10s4.478 10 10 10h75.968c5.522 0 10-4.477 10-10s-4.478-10-10-10z"/><path d="m366.053 268.011h-112.164c-5.522 0-10 4.477-10 10s4.478 10 10 10h112.164c5.522 0 10-4.477 10-10s-4.478-10-10-10z"/><path d="m145.947 288.011h57.938c5.522 0 10-4.477 10-10s-4.478-10-10-10h-57.938c-5.522 0-10 4.477-10 10s4.478 10 10 10z"/><path d="m145.947 332.032h220.105c5.522 0 10-4.477 10-10s-4.478-10-10-10h-220.105c-5.522 0-10 4.477-10 10s4.478 10 10 10z"/><path d="m233.167 199.968h16.951c5.522 0 10-4.477 10-10s-4.478-10-10-10h-16.951c-5.522 0-10 4.477-10 10s4.478 10 10 10z"/><path d="m280.114 189.968c0 5.523 4.478 10 10 10h75.938c5.522 0 10-4.477 10-10s-4.478-10-10-10h-75.938c-5.522 0-10 4.477-10 10z"/><path d="m366.053 223.989h-16.922c-5.522 0-10 4.477-10 10s4.478 10 10 10h16.922c5.522 0 10-4.477 10-10s-4.478-10-10-10z"/><path d="m233.167 243.989h75.968c5.522 0 10-4.477 10-10s-4.478-10-10-10h-75.968c-5.522 0-10 4.477-10 10s4.478 10 10 10z"/><path d="m145.947 376.053h112.164c5.522 0 10-4.477 10-10s-4.478-10-10-10h-112.164c-5.522 0-10 4.477-10 10s4.478 10 10 10z"/><path d="m366.053 356.053h-57.938c-5.522 0-10 4.477-10 10s4.478 10 10 10h57.938c5.522 0 10-4.477 10-10s-4.478-10-10-10z"/><path d="m101.954 266.014c5.522 0 10-4.505 10-10.028s-4.478-10-10-10-10 4.477-10 10v.057c0 5.522 4.478 9.971 10 9.971z"/></g></g></svg>