<?xml version="1.0"?>
<svg xmlns="http://www.w3.org/2000/svg" viewBox="0 0 512 512" width="512" height="512"><g id="Outline"><rect x="168" y="48" width="16" height="16"/><rect x="168" y="80" width="16" height="48"/><path d="M496,160V136a16.019,16.019,0,0,0-16-16H464a8,8,0,0,0-8-8H408a8,8,0,0,0-8,8v56H384a8,8,0,0,0-7.155,11.578,27.91,27.91,0,0,1,0,24.844,8.108,8.108,0,0,0,0,7.156A27.932,27.932,0,0,1,378.592,240H352V216a8,8,0,0,0-8-8H306.234a40.107,40.107,0,0,0-39.189,32h-40.8l12-48h35.507l2.485,9.939,15.522-3.878L290.245,192H352a24.027,24.027,0,0,0,24-24V40a24.027,24.027,0,0,0-24-24H160a24.027,24.027,0,0,0-24,24V168a24.027,24.027,0,0,0,24,24h61.754l-12,48H96v-8a24.028,24.028,0,0,0-24-24H61.766l-17.8-53.411a15.923,15.923,0,0,0,.284-20.866L60.26,89.705l7.132,16.643a8,8,0,0,0,5.84,4.7,8.006,8.006,0,0,0,7.17-2.2L125.657,63.6a8,8,0,0,0-2.506-13.011L84.969,34.225,69.088,18.343a8,8,0,0,0-11.313,0L35.147,40.97a8,8,0,0,0,0,11.314L51.028,68.165l.023.052L29.207,128.26a15.992,15.992,0,0,0-.414,31.416L44.9,208H40a24.028,24.028,0,0,0-24,24v72a8,8,0,0,0,8,8H77.872L41.681,464H33.667L59.288,329.5,43.57,326.5l-27.429,144A8,8,0,0,0,24,480H48a8,8,0,0,0,7.782-6.147L94.319,312H152V296H32V256H68.686l5.657,5.657A8,8,0,0,0,80,264h32a8,8,0,0,0,5.657-2.343L123.314,256H160v32h16V256h87.841l-3,15a24.141,24.141,0,0,1-21.361,19.2l-38.545,3.5a40.236,40.236,0,0,0-36.069,34.874l-4.8,38.434A8,8,0,0,0,168,376h23.008l-22.476,95.5A19.938,19.938,0,0,0,187.94,496a20.037,20.037,0,0,0,19.125-14.313l17.919-60.931L256,406.974l31.016,13.782,17.917,60.926A20.039,20.039,0,0,0,324.06,496a19.939,19.939,0,0,0,19.408-24.5L318.381,364.872A72,72,0,0,0,352,304V256H480v40H368v16h49.681l38.537,161.853A8,8,0,0,0,464,480h24a8,8,0,0,0,7.859-9.5L465.668,312H488a8,8,0,0,0,8-8V248a8,8,0,0,0-8-8h-1.376a23.943,23.943,0,0,0-4.755-24A23.984,23.984,0,0,0,464,176h16A16.019,16.019,0,0,0,496,160ZM160,32H352a8.009,8.009,0,0,1,8,8V144H152V40A8.009,8.009,0,0,1,160,32Zm-8,136v-8H360v8a8.009,8.009,0,0,1-8,8H160A8.009,8.009,0,0,1,152,168ZM63.432,35.313,74.745,46.628a8,8,0,0,0,2.5,1.7L105.988,60.64,77.444,89.184,65.127,60.446a7.989,7.989,0,0,0-1.7-2.506L52.118,46.627ZM478.333,464h-8.014L434.128,312H449.38ZM416,128h32v48H416ZM32,232a8.009,8.009,0,0,1,8-8H72a8.009,8.009,0,0,1,8,8v8H32ZM191.713,477.178A3.951,3.951,0,0,1,187.94,480a3.937,3.937,0,0,1-3.833-4.837L207.446,376h14.023L210.7,412.623l-.02.069ZM273.854,376l1.439,4.893L256,389.466l-19.293-8.573L238.146,376Zm-42.947,24.616,1.247-4.238,4.146,1.842Zm44.793-2.4,4.146-1.842,1.247,4.238Zm52.192,76.94A3.937,3.937,0,0,1,324.06,480a3.954,3.954,0,0,1-3.775-2.827l-18.963-64.481c-.007-.023-.013-.046-.02-.069L290.311,375.25a71.3,71.3,0,0,0,13.31-3.25ZM280,360H177.062l3.68-29.441a24.142,24.142,0,0,1,21.642-20.925l38.545-3.5a40.236,40.236,0,0,0,35.6-31.99l6.169-30.846A24.065,24.065,0,0,1,306.234,224H336v80A56.063,56.063,0,0,1,280,360ZM395.022,240a44.171,44.171,0,0,0,0-16H464a8,8,0,0,1,0,16ZM472,200a8.009,8.009,0,0,1-8,8H395.022a44.171,44.171,0,0,0,0-16H464A8.009,8.009,0,0,1,472,200Zm-8-64h16v24H464Z"/></g></svg>
